<?xml version="1.0" standalone="no"?>
<!DOCTYPE svg PUBLIC "-//W3C//DTD SVG 20010904//EN"
 "http://www.w3.org/TR/2001/REC-SVG-20010904/DTD/svg10.dtd">
<svg version="1.0" xmlns="http://www.w3.org/2000/svg"
 width="1000.000000pt" height="1000.000000pt" viewBox="0 0 1000.000000 1000.000000"
 preserveAspectRatio="xMidYMid meet">
<metadata>
Created by potrace 1.14, written by Peter Selinger 2001-2017
</metadata>
<g transform="translate(0.000000,1000.000000) scale(0.100000,-0.100000)"
fill="#000000" stroke="none">
<path d="M2556 9418 c-3 -18 -8 -42 -10 -53 -2 -11 -7 -38 -11 -60 -4 -22 -9
-51 -11 -65 -3 -14 -9 -51 -15 -82 -14 -78 -17 -97 -23 -142 -4 -21 -8 -41
-10 -45 -2 -3 -7 -26 -10 -51 -3 -25 -8 -56 -11 -70 -3 -14 -7 -41 -10 -60 -2
-19 -4 -35 -5 -35 -2 0 -4 -13 -21 -108 -7 -40 -13 -74 -14 -77 -1 -3 -5 -30
-9 -60 -5 -30 -12 -65 -17 -77 l-8 -22 1642 -1 c1829 -1 1897 -2 1897 -13 0
-4 8 -3 19 2 10 6 21 7 25 4 3 -3 57 -7 118 -9 62 -1 113 -3 113 -4 0 -1 25
-3 55 -5 69 -4 185 -13 230 -19 19 -2 60 -7 90 -11 30 -4 57 -8 60 -10 3 -2
28 -6 55 -9 73 -10 79 -11 90 -18 6 -3 27 -9 47 -12 46 -7 150 -42 199 -67 20
-10 39 -15 43 -12 3 4 6 1 6 -5 0 -7 7 -12 15 -12 8 0 15 -4 15 -8 0 -4 16
-14 35 -21 19 -7 35 -16 35 -21 0 -5 9 -11 19 -15 56 -17 235 -226 271 -315 6
-14 16 -36 24 -50 17 -32 51 -139 65 -210 25 -118 31 -268 17 -405 -10 -94
-12 -109 -31 -195 -4 -14 -8 -35 -11 -46 -9 -47 -47 -160 -56 -171 -6 -7 -8
-13 -4 -13 4 0 0 -14 -9 -30 -9 -17 -13 -30 -9 -30 4 0 2 -6 -4 -12 -5 -7 -31
-53 -56 -101 -75 -144 -208 -306 -344 -418 -42 -36 -196 -139 -206 -139 -4 0
-20 -8 -34 -18 -15 -11 -67 -36 -117 -57 -49 -21 -94 -40 -100 -44 -5 -3 -12
-6 -15 -7 -3 0 -45 -13 -95 -27 -49 -15 -106 -32 -125 -37 -49 -14 -174 -37
-240 -45 -30 -4 -66 -8 -80 -11 -143 -22 -485 -37 -878 -38 -277 -1 -323 -3
-327 -16 -4 -15 -9 -46 -21 -135 -3 -27 -8 -59 -10 -70 -16 -105 -24 -153 -28
-170 -2 -11 -6 -41 -10 -66 -4 -25 -9 -59 -12 -75 -3 -16 -7 -42 -10 -59 -2
-16 -6 -43 -9 -60 -2 -16 -7 -48 -10 -70 -3 -22 -10 -67 -15 -100 -6 -33 -12
-75 -15 -92 -4 -28 -11 -72 -18 -118 -1 -6 127 -10 355 -10 196 -1 360 -4 364
-7 3 -4 11 -5 17 -2 22 8 77 11 77 5 0 -3 28 -7 63 -7 95 -1 422 -27 422 -34
0 -1 16 -3 35 -5 66 -7 125 -14 150 -20 14 -3 40 -7 58 -10 17 -2 60 -11 95
-20 34 -8 71 -17 82 -19 102 -20 409 -157 423 -188 2 -5 8 -8 14 -8 5 0 15 -6
22 -12 7 -7 27 -24 45 -38 30 -23 79 -71 141 -138 59 -63 178 -274 191 -340 1
-4 5 -17 10 -30 10 -25 14 -45 35 -152 14 -71 21 -327 10 -376 -2 -12 -7 -45
-11 -75 -3 -30 -13 -83 -21 -119 -9 -36 -17 -72 -19 -81 -15 -71 -107 -314
-124 -329 -3 -3 -7 -12 -9 -20 -7 -29 -117 -200 -181 -282 -78 -99 -221 -243
-300 -301 -31 -23 -58 -44 -61 -47 -28 -28 -194 -122 -290 -163 -96 -41 -190
-77 -190 -71 0 2 -11 -3 -25 -12 -14 -9 -25 -14 -25 -10 0 3 -12 1 -27 -5 -27
-10 -38 -14 -84 -24 -11 -2 -29 -7 -39 -10 -10 -3 -28 -8 -39 -10 -12 -3 -31
-7 -43 -10 -33 -7 -128 -25 -163 -31 -64 -11 -86 -13 -305 -31 -41 -3 -779 -7
-1640 -9 -1475 -3 -1688 -5 -2220 -20 -118 -4 -227 -6 -242 -5 -28 1 -34 -11
-42 -89 -1 -14 -5 -30 -8 -35 -3 -6 -8 -33 -12 -62 -3 -28 -8 -57 -10 -65 -3
-7 -8 -31 -11 -53 -4 -22 -8 -49 -10 -60 -1 -11 -6 -36 -9 -55 -4 -19 -10 -57
-15 -85 -5 -27 -10 -57 -10 -65 0 -8 -4 -33 -10 -55 -6 -22 -13 -58 -16 -80
-3 -22 -8 -51 -11 -65 -8 -37 -17 -102 -18 -127 -1 -13 -4 -23 -7 -23 -3 0 -6
-6 -6 -12 -1 -7 -3 -30 -6 -51 l-6 -38 2032 4 c1118 2 2052 7 2077 10 25 3 88
8 140 12 52 4 115 9 140 11 25 2 68 6 95 8 28 3 50 5 50 6 0 1 11 3 25 5 89 9
145 17 220 31 47 8 99 17 115 19 17 1 31 4 33 5 1 1 11 4 22 5 11 1 21 3 23 4
1 2 14 4 28 6 14 2 43 8 65 14 21 5 53 13 71 16 18 3 43 9 57 15 15 5 26 7 26
4 0 -2 8 0 18 5 9 5 31 11 47 14 37 6 339 105 415 137 30 12 64 26 75 30 69
28 311 150 368 187 37 23 70 43 72 43 15 0 210 146 309 233 67 58 216 208 268
269 24 27 53 62 66 77 56 65 272 362 272 375 0 2 18 34 41 71 50 83 129 237
129 253 0 7 5 12 12 12 6 0 8 3 5 6 -3 4 -1 16 5 28 7 11 13 23 14 26 0 3 8
21 16 40 20 46 31 74 32 80 1 3 5 11 9 18 5 6 6 12 2 12 -3 0 1 13 10 30 9 17
13 30 10 30 -3 0 -1 9 6 21 10 19 45 137 54 182 3 10 6 26 9 35 3 9 8 28 10
42 3 14 10 43 15 65 5 22 12 60 16 85 4 25 8 54 10 65 1 11 3 20 4 20 3 0 10
88 15 176 2 42 7 82 10 88 4 6 3 11 -1 11 -8 0 -9 35 -3 65 1 6 2 12 0 15 -1
3 -3 34 -4 70 -5 103 -16 185 -40 295 -14 70 -56 206 -76 250 -15 32 -28 69
-26 76 0 4 -8 16 -18 28 -11 12 -15 21 -11 21 4 0 2 8 -6 18 -8 9 -21 31 -29
47 -27 55 -112 183 -148 220 -6 8 -12 16 -12 20 0 4 -12 20 -27 35 -16 16 -33
35 -39 42 -75 87 -256 233 -384 310 -133 80 -333 174 -445 207 -22 7 -47 15
-55 18 -8 3 -19 7 -25 9 -5 1 -23 7 -39 14 l-30 11 75 33 c40 18 119 56 174
85 55 30 110 59 122 65 13 6 23 14 23 19 0 4 4 7 10 7 9 0 100 53 125 72 6 4
46 33 90 64 44 31 112 82 150 113 76 61 305 286 345 339 14 18 35 45 48 60 12
15 46 61 74 102 29 41 57 80 63 86 5 6 19 28 30 50 11 21 23 41 27 44 9 8 122
228 142 280 10 25 23 56 29 70 5 14 11 32 13 40 2 8 7 23 13 35 11 22 48 149
55 186 3 13 5 24 6 24 3 0 9 38 15 84 4 25 8 48 10 51 18 29 27 414 13 525
-21 163 -44 263 -90 385 -11 30 -21 62 -23 70 -1 8 -15 42 -30 75 -16 33 -29
62 -30 65 -11 33 -78 152 -111 197 -13 17 -24 35 -24 38 0 13 -112 151 -178
219 -37 38 -98 94 -137 125 -38 31 -72 58 -75 61 -10 10 -101 70 -106 70 -3 0
-18 8 -32 19 -35 24 -222 122 -222 115 0 -2 -10 1 -22 8 -13 7 -25 13 -28 13
-3 1 -21 8 -40 17 -37 16 -183 65 -216 73 -20 5 -86 22 -119 31 -11 3 -27 7
-35 8 -8 2 -31 6 -50 11 -19 5 -39 9 -45 10 -5 0 -26 4 -45 8 -49 10 -89 17
-135 23 -22 3 -51 8 -65 10 -32 7 -69 11 -155 19 -38 3 -83 8 -100 10 -108 16
-468 19 -2191 22 l-1932 4 -6 -33z"/>
<path d="M2256 7723 c-3 -4 -6 -18 -6 -33 0 -15 -3 -29 -6 -33 -3 -3 -8 -25
-10 -49 -2 -24 -6 -54 -9 -68 -9 -36 -15 -71 -18 -105 -2 -17 -6 -35 -9 -41
-4 -5 -5 -22 -4 -37 2 -15 0 -27 -4 -27 -5 0 -23 -96 -36 -195 -1 -11 -3 -20
-4 -20 -1 0 -4 -11 -6 -25 -2 -14 -6 -38 -9 -55 -3 -16 -8 -43 -10 -60 -2 -16
-11 -64 -19 -105 -21 -109 -35 -186 -41 -230 -4 -30 -16 -101 -19 -115 -2 -5
-7 -32 -11 -60 -5 -27 -10 -52 -10 -55 -1 -3 -5 -27 -10 -55 -10 -56 -12 -64
-14 -67 -1 -2 -4 -19 -6 -38 -3 -33 -9 -66 -19 -116 -2 -12 -7 -37 -10 -55 -3
-19 -7 -43 -10 -54 -2 -11 -7 -40 -11 -65 -8 -48 -12 -72 -19 -107 -3 -11 -8
-43 -12 -70 -3 -26 -9 -57 -11 -68 -6 -23 -7 -33 -18 -100 -4 -27 -13 -53 -19
-57 -8 -5 -7 -8 2 -8 7 0 11 -4 8 -9 -3 -5 -9 -26 -12 -47 -8 -49 -12 -69 -14
-69 -1 0 -3 -11 -5 -25 -8 -60 -18 -122 -30 -180 -7 -37 -17 -103 -18 -117 0
-7 -3 -13 -6 -13 -3 0 -6 -10 -7 -22 0 -25 -11 -99 -19 -138 -6 -27 -46 -251
-50 -285 -2 -11 -4 -20 -6 -20 -1 0 -3 -16 -4 -35 -2 -19 -4 -35 -5 -35 -2 0
-7 -23 -14 -70 -4 -23 -9 -52 -11 -65 -3 -14 -7 -38 -10 -55 -3 -16 -8 -43
-12 -60 -4 -16 -8 -38 -9 -47 -1 -10 -2 -19 -4 -20 -1 -2 -3 -16 -5 -33 -2
-16 -6 -43 -10 -60 -3 -16 -8 -43 -10 -60 -1 -16 -6 -37 -9 -46 -4 -9 -6 -20
-5 -25 1 -5 0 -11 -1 -14 -2 -7 -7 -34 -14 -77 -3 -21 -8 -49 -11 -63 -3 -14
-8 -38 -10 -55 -11 -77 -20 -124 -31 -168 -3 -12 -7 -43 -9 -69 -1 -25 -5 -50
-7 -55 -10 -17 -31 -131 -32 -175 0 -10 -3 -18 -6 -18 -3 0 -6 -10 -7 -22 0
-27 -13 -110 -18 -118 -3 -5 -8 -35 -21 -115 -3 -16 -7 -39 -8 -50 -2 -11 -7
-38 -11 -60 -12 -76 -13 -79 -45 -255 -10 -58 -22 -121 -25 -140 -3 -19 -8
-47 -10 -63 -3 -15 -7 -39 -10 -55 -2 -15 -6 -38 -9 -52 -3 -13 -2 -27 3 -30
11 -6 4400 -4 4407 3 2 2 6 31 9 63 2 33 7 82 10 109 3 28 7 70 10 95 2 25 6
56 9 70 2 14 7 59 11 100 9 91 11 110 19 180 7 60 14 125 20 182 2 22 -1 38
-8 40 -6 2 -708 3 -1559 3 l-1548 -1 6 35 c4 20 8 45 10 56 15 96 18 123 19
140 1 11 4 22 7 25 4 3 9 28 13 55 3 28 8 61 11 75 13 64 27 147 28 168 1 12
3 22 7 22 3 0 6 12 6 28 1 15 4 40 7 56 4 16 9 48 12 70 8 51 10 65 18 96 4
14 9 41 12 60 2 19 7 46 9 59 3 12 8 44 12 70 8 64 12 86 14 86 2 0 6 18 14
65 3 19 12 71 20 115 8 44 12 83 9 88 -2 4 0 7 4 7 8 0 10 8 14 65 1 14 9 29
18 33 9 5 267 7 574 7 307 -1 560 2 563 6 2 4 6 20 8 36 3 15 7 39 10 53 2 14
7 42 10 63 10 61 17 108 22 131 4 21 33 192 39 231 2 11 6 38 10 60 4 22 9 54
11 70 2 17 11 66 19 110 9 44 18 96 21 115 4 19 8 46 10 60 3 14 6 36 7 50 2
14 7 31 11 38 4 7 6 13 4 13 -2 1 -255 3 -563 4 -308 1 -566 3 -573 4 -8 0
-11 8 -8 19 6 18 13 56 22 112 3 19 7 45 10 58 2 12 6 32 8 45 3 12 7 38 10
57 8 48 15 86 26 145 6 28 12 64 14 80 5 35 16 99 22 129 2 11 9 48 14 81 10
56 27 147 29 153 2 5 2 8 6 37 2 17 7 46 11 65 4 19 8 45 9 58 1 12 5 25 8 28
3 3 793 6 1755 6 1314 0 1749 3 1750 11 4 53 12 120 16 126 6 8 20 116 21 154
0 15 3 27 7 27 5 0 7 3 6 8 -2 6 9 100 17 147 8 43 18 111 21 130 4 39 14 103
29 196 18 116 19 106 -5 112 -11 3 -20 2 -20 -1 0 -4 -42 -6 -92 -4 -51 2
-517 4 -1035 5 -519 1 -943 6 -943 10 0 5 -5 5 -10 2 -17 -10 -100 -12 -106
-3 -3 5 -11 5 -18 -1 -6 -6 -18 -6 -25 -2 -8 5 -27 5 -42 1 -16 -5 -31 -5 -33
-2 -5 9 -70 7 -85 -3 -6 -3 -11 -2 -11 2 0 12 -84 10 -92 -2 -5 -7 -8 -7 -8 0
0 11 -2163 18 -2174 8z"/>
</g>
</svg>
